<?xml version="1.0" encoding="utf-8" ?><svg xmlns="http://www.w3.org/2000/svg" xmlns:xlink="http://www.w3.org/1999/xlink" width="1024" height="1024" viewBox="0 0 1024 1024"><path fill="#0E0F12" d="M0 0L1024 0L1024 1024L0 1024L0 0Z"/><path fill="#F5F3F0" d="M261.191 447.227L412.111 447.194C412.085 464.585 411.768 483.012 412.397 500.303L429.587 500.404L429.79 461.951L639.923 461.618L639.906 447.326C651.49 446.934 665.08 447.262 676.842 447.254L745.444 447.24L745.424 473.346L720.798 473.458C720.692 481.663 720.793 490.086 720.794 498.31L697.708 498.446L697.712 520.698L606.406 520.823L606.347 543.646L576.49 543.63L576.381 579.709L593.212 579.731L600.489 579.76L600.5 607.375L621.51 607.507L621.587 633.647C629.04 633.622 636.493 633.672 643.945 633.798L643.916 657.345L603.111 657.351L603.105 636.584L453.544 636.704L453.507 659.003L409.616 659.036L409.595 633.474C416.993 633.388 424.53 633.462 431.941 633.461L432.031 607.466C439.795 607.237 448.206 607.392 456.018 607.393L456.018 579.571L479.518 579.624L479.547 543.602C470.079 543.697 460.611 543.713 451.143 543.651C451.07 536.056 451.198 528.245 451.231 520.632L364.612 520.858L364.634 500.994L343.032 501.117L343.074 485.67L295.376 485.671L295.348 468.862L260.188 468.835C260.155 462.322 260.013 455.203 260.314 448.696C260.364 447.61 260.299 447.906 261.191 447.227Z"/><path fill="#F5F3F0" d="M354.612 668.483L696.603 668.479L696.6 683.71L354.594 683.571L354.612 668.483Z"/><path fill="#F5F3F0" d="M444.088 415.094L616.292 415.293L616.481 433.935L443.995 433.862L444.088 415.094Z"/><path fill="#FF6A1A" d="M454.231 250.471L472.483 250.454L472.509 340.034C472.513 350.02 473.259 371.876 472.39 380.977L454.01 380.996L454.231 250.471Z"/><path fill="#FF6A1A" d="M265.477 358.522L295.888 358.526L295.664 374.443L337.276 374.428L337.163 385.481L377.387 385.478L377.484 400.052C388.139 399.963 398.795 399.945 409.45 399.997L409.456 415.327C405.711 415.904 383.379 415.43 378.47 415.396L378.398 401.946C364.844 402.203 350.668 402.01 337.065 402.025L337.031 389.019C323.233 389.253 308.868 389.05 295.025 389.046L295.1 374.649C285.491 375.073 275.176 374.957 265.509 375.01L265.477 358.522Z"/><path fill="#FF6A1A" d="M368.108 251.477L383.806 251.556C383.604 261.703 383.944 271.8 383.621 282.038L398.159 282.103L398.326 309.915C394.018 310.197 387.505 309.991 383.033 309.991C382.871 300.885 382.987 291.473 382.984 282.344C378.09 282.365 373.195 282.355 368.301 282.314L368.108 251.477Z"/><path fill="#FF6A1A" d="M349.017 211.609C354.494 211.696 360.001 211.614 365.454 211.806C365.332 224.775 365.743 238.401 365.446 251.275C359.966 251.374 354.486 251.407 349.005 251.374C348.879 238.784 348.699 224.123 349.017 211.609Z"/><path fill="#FF6A1A" d="M420.016 341.037C425.765 341.091 431.528 341.025 437.267 341.121C437.113 352.99 437.296 364.988 437.245 376.875C434.775 377.394 423.108 377.116 420.087 377.058C419.911 365.35 419.893 352.747 420.016 341.037Z"/><path fill="#FF6A1A" d="M400.171 310.012C405.311 309.979 410.451 309.979 415.591 310.012C415.539 315.681 416.008 334.882 415.376 339.212C410.35 339.35 405.322 339.397 400.294 339.354C400.26 329.72 400.1 319.562 400.171 310.012Z"/><path fill="#F5F3F0" d="M419.342 433.023L441.974 433.029L441.858 448.275C434.334 448.34 426.809 448.355 419.285 448.321C419.293 443.262 419.27 438.07 419.342 433.023Z"/><path fill="#F5F3F0" d="M620.272 432.834C625.828 432.817 631.384 432.838 636.94 432.896C636.96 437.877 636.847 443.056 636.959 448.012C631.428 448.057 625.897 448.066 620.366 448.038C620.12 443.183 620.153 437.709 620.272 432.834Z"/><path fill="#FF6A1A" d="M349.991 326.399C355.357 326.56 360.785 326.452 366.166 326.515L366.32 341.949C361.627 342.238 354.819 342.121 350.014 342.078C349.964 336.852 349.957 331.625 349.991 326.399Z"/><path fill="#FF6A1A" d="M319.523 292.009L334.433 292.055L334.497 308.479C329.554 308.503 324.61 308.497 319.666 308.462L319.523 292.009Z"/><path fill="#FF6A1A" d="M384.425 356.897C389.436 356.873 394.448 356.897 399.459 356.967L399.484 372.576L384.447 372.559L384.425 356.897Z"/><path fill="#FF6A1A" d="M303.423 275.983L318.542 276.013C318.506 281.159 318.545 286.306 318.66 291.45C313.601 291.461 308.541 291.43 303.482 291.357L303.423 275.983Z"/><path fill="#FF6A1A" d="M270.853 243.959L286.052 244.038C286.109 249.094 286.13 254.151 286.114 259.208C281.052 259.27 275.99 259.267 270.928 259.2L270.853 243.959Z"/><path fill="#FF6A1A" d="M367.898 341.923C372.534 341.863 377.171 341.849 381.807 341.883C381.79 347.033 381.841 352.182 381.961 357.33C377.313 357.426 372.664 357.431 368.016 357.343C368.024 352.203 367.984 347.063 367.898 341.923Z"/><path fill="#FF6A1A" d="M288.001 259.956C292.64 259.951 297.278 259.971 301.917 260.015L302.005 275.305C297.351 275.356 292.697 275.361 288.042 275.321L288.001 259.956Z"/><path fill="#FF6A1A" d="M256.876 227.984C261.402 227.946 265.929 227.941 270.456 227.967C270.433 230.775 270.725 241.205 270.14 243.256C265.721 243.217 261.152 243.326 256.795 243.216L256.876 227.984Z"/><path fill="#FF6A1A" d="M336.054 310.469C340.697 310.422 345.34 310.423 349.982 310.472L349.908 325.548C345.321 325.46 340.732 325.428 336.144 325.452L336.054 310.469Z"/></svg>